<svg xmlns="http://www.w3.org/2000/svg" width="48" height="48" viewBox="0 0 48 48" fill="none">
  <!-- outer glow ring -->
  <circle cx="24" cy="24" r="22" stroke="url(#gold-grad)" stroke-width="2" opacity="0.3"/>
  <!-- main circle -->
  <circle cx="24" cy="24" r="18" fill="url(#bg-grad)"/>
  <!-- inner decorative ring -->
  <circle cx="24" cy="24" r="15" stroke="url(#gold-grad)" stroke-width="0.75" opacity="0.5"/>
  <!-- crescent moon -->
  <path d="M28 12c-4.5 2-7.5 6.5-7.5 11.5S23.5 34 28 36c-1.2.4-2.5.5-3.8.5C17.4 36.5 12 31 12 24s5.4-12.5 12.2-12.5c1.3 0 2.6.2 3.8.5z" fill="url(#gold-grad)"/>
  <!-- star -->
  <path d="M33 20l1.2 2.4 2.7.4-2 1.9.5 2.7L33 26l-2.4 1.4.5-2.7-2-1.9 2.7-.4L33 20z" fill="url(#gold-grad)"/>
  <!-- small decorative dots -->
  <circle cx="30" cy="14" r="0.8" fill="#fbbf24" opacity="0.6"/>
  <circle cx="35" cy="17" r="0.6" fill="#fbbf24" opacity="0.4"/>
  <defs>
    <linearGradient id="gold-grad" x1="0" y1="0" x2="48" y2="48">
      <stop offset="0%" stop-color="#fbbf24"/>
      <stop offset="100%" stop-color="#ca8a04"/>
    </linearGradient>
    <radialGradient id="bg-grad" cx="50%" cy="50%" r="50%">
      <stop offset="0%" stop-color="#1e293b"/>
      <stop offset="100%" stop-color="#0f172a"/>
    </radialGradient>
  </defs>
</svg>
